<svg width="73" height="73" fill="none" xmlns="http://www.w3.org/2000/svg"><g clip-path="url(#clip0)"><path d="M11.14 12.905l.072-12.7L0 11.149l11.14 1.756zM23.338 16.73l5.01-5.397c.113-.12-.046-.422-.311-.595L11.753.23c-.36-.227-.58-.034-.34.304l11.27 15.898c.19.27.534.425.654.298z" fill="#E30074"/><path d="M10.68 14.07l1.669-7.073-2.206 6.45a.339.339 0 00.147.398l.39.225z" fill="#8A3C45"/><path d="M46.693 10.443l15.32 22.993L43.502 58.35 27.369 27.397l19.324-16.954z" fill="#009FDB"/><path d="M60.074 36.234l3.845-4.617a.339.339 0 000-.427L47.385 10.631a.334.334 0 00-.558.361l12.689 25.18a.337.337 0 00.558.062z" fill="#EE7203"/><path d="M69.577 26.489L73 50.123 46.772 10.448l22.805 16.04zM37.978 64.16l6.604-7.365a.845.845 0 00.107-.977l-15.79-28.01a.844.844 0 00-1.573.52l4.36 35.203c.375 3.482 5.243 3.964 6.292.62v.01z" fill="#F59C00"/><path d="M28.182 62.005l4.224 2.957-4.05-37.1-.174 34.143z" fill="#007BC3"/><path d="M28.182 62.005l.174-34.142-27.14 14.262 26.966 19.88z" fill="#009FDB"/><path d="M27.373 25.358l1.548 2.42L5.987 45.695 1.22 42.126s1.135-2.185 1.607-2.36c.472-.175 24.546-14.408 24.546-14.408z" fill="#E84E0F"/><path d="M11.12.077L1.217 42.126l27.706-14.347L11.12.077z" fill="#F59C00"/><path d="M24.668 21.11l.656-5.678L11.14-.012c0 .282 2.102 3.285 2.11 3.298L24.67 21.11z" fill="#892A81"/><path d="M27.37 61.38L36.08 73l25.899-39.16-25.9 31.897-8.71-4.356z" fill="#E30074"/></g><defs><clipPath id="clip0"><path fill="#fff" d="M0 0h73v73H0z"/></clipPath></defs></svg>